<mxfile host="65bd71144e">
    <diagram id="ehJ0dWxkUVVamDh69P_z" name="Page-1">
        <mxGraphModel dx="1453" dy="844" grid="1" gridSize="10" guides="1" tooltips="1" connect="1" arrows="1" fold="1" page="1" pageScale="1" pageWidth="850" pageHeight="1100" math="0" shadow="0">
            <root>
                <mxCell id="0"/>
                <mxCell id="1" parent="0"/>
                <mxCell id="13" value="게임 플로우" style="swimlane;startSize=0;shadow=0;" vertex="1" parent="1">
                    <mxGeometry x="15" y="70" width="820" height="100" as="geometry">
                        <mxRectangle x="20" y="10" width="100" height="30" as="alternateBounds"/>
                    </mxGeometry>
                </mxCell>
                <mxCell id="12" value="" style="group;movable=1;resizable=1;rotatable=1;deletable=1;editable=1;connectable=1;" vertex="1" connectable="0" parent="13">
                    <mxGeometry x="20" y="10" width="800" height="60" as="geometry"/>
                </mxCell>
                <mxCell id="2" value="로비" style="rounded=0;whiteSpace=wrap;html=1;shadow=0;direction=west;flipH=0;flipV=0;" vertex="1" parent="12">
                    <mxGeometry width="120" height="60" as="geometry"/>
                </mxCell>
                <mxCell id="3" value="캐릭터 선택" style="whiteSpace=wrap;html=1;rounded=0;shadow=0;direction=west;flipH=0;flipV=0;" vertex="1" parent="12">
                    <mxGeometry x="230" width="120" height="60" as="geometry"/>
                </mxCell>
                <mxCell id="4" value="게임시작" style="edgeStyle=none;html=1;shadow=0;endArrow=none;endFill=0;" edge="1" parent="12" source="2" target="3">
                    <mxGeometry relative="1" as="geometry"/>
                </mxCell>
                <mxCell id="5" value="인게임" style="whiteSpace=wrap;html=1;rounded=0;shadow=0;direction=west;flipH=0;flipV=0;" vertex="1" parent="12">
                    <mxGeometry x="440" width="120" height="60" as="geometry"/>
                </mxCell>
                <mxCell id="6" value="플레이" style="edgeStyle=none;html=1;shadow=0;endArrow=none;endFill=0;" edge="1" parent="12" source="3" target="5">
                    <mxGeometry relative="1" as="geometry"/>
                </mxCell>
                <mxCell id="7" value="엔딩" style="whiteSpace=wrap;html=1;rounded=0;direction=west;flipH=0;flipV=0;" vertex="1" parent="12">
                    <mxGeometry x="640" width="120" height="60" as="geometry"/>
                </mxCell>
                <mxCell id="8" value="종료" style="edgeStyle=none;html=1;shadow=0;endArrow=none;endFill=0;" edge="1" parent="12" source="5" target="7">
                    <mxGeometry relative="1" as="geometry"/>
                </mxCell>
                <mxCell id="41" value="&lt;h1&gt;도메인 모델&lt;/h1&gt;" style="text;html=1;strokeColor=none;fillColor=none;spacing=5;spacingTop=-20;whiteSpace=wrap;overflow=hidden;rounded=0;shadow=0;" vertex="1" parent="1">
                    <mxGeometry x="15" y="10" width="190" height="120" as="geometry"/>
                </mxCell>
                <mxCell id="66" value="인게임 플로우" style="swimlane;startSize=0;shadow=0;" vertex="1" parent="1">
                    <mxGeometry x="15" y="190" width="820" height="600" as="geometry"/>
                </mxCell>
                <mxCell id="65" value="" style="group" vertex="1" connectable="0" parent="66">
                    <mxGeometry x="55" y="40" width="800" height="530" as="geometry"/>
                </mxCell>
                <mxCell id="19" value="스테이지" style="rounded=0;whiteSpace=wrap;html=1;shadow=0;" vertex="1" parent="65">
                    <mxGeometry x="373" width="120" height="60" as="geometry"/>
                </mxCell>
                <mxCell id="21" value="" style="edgeStyle=orthogonalEdgeStyle;rounded=1;html=1;shadow=0;endArrow=diamondThin;endFill=1;" edge="1" parent="65" source="19" target="20">
                    <mxGeometry relative="1" as="geometry"/>
                </mxCell>
                <mxCell id="20" value="웨이브 관리자" style="whiteSpace=wrap;html=1;rounded=0;shadow=0;" vertex="1" parent="65">
                    <mxGeometry x="373" y="100" width="120" height="60" as="geometry"/>
                </mxCell>
                <mxCell id="24" value="웨이브" style="whiteSpace=wrap;html=1;rounded=0;shadow=0;" vertex="1" parent="65">
                    <mxGeometry x="373" y="230" width="120" height="60" as="geometry"/>
                </mxCell>
                <mxCell id="25" value="1&lt;br&gt;&lt;br&gt;*" style="edgeStyle=orthogonalEdgeStyle;rounded=1;html=1;shadow=0;verticalAlign=middle;horizontal=1;textDirection=ltr;align=right;" edge="1" parent="65" source="20" target="24">
                    <mxGeometry relative="1" as="geometry"/>
                </mxCell>
                <mxCell id="29" value="" style="edgeStyle=orthogonalEdgeStyle;rounded=1;html=1;shadow=0;endArrow=block;endFill=0;dashed=1;" edge="1" parent="65" source="26" target="24">
                    <mxGeometry relative="1" as="geometry"/>
                </mxCell>
                <mxCell id="26" value="기본 웨이브" style="whiteSpace=wrap;html=1;rounded=0;shadow=0;" vertex="1" parent="65">
                    <mxGeometry x="298" y="350" width="120" height="60" as="geometry"/>
                </mxCell>
                <mxCell id="31" value="" style="edgeStyle=elbowEdgeStyle;rounded=1;elbow=vertical;html=1;shadow=0;endArrow=block;endFill=0;dashed=1;" edge="1" parent="65" source="30" target="24">
                    <mxGeometry relative="1" as="geometry"/>
                </mxCell>
                <mxCell id="30" value="보스 웨이브" style="whiteSpace=wrap;html=1;rounded=0;shadow=0;" vertex="1" parent="65">
                    <mxGeometry x="448" y="350" width="120" height="60" as="geometry"/>
                </mxCell>
                <mxCell id="35" value="상점" style="whiteSpace=wrap;html=1;rounded=0;shadow=0;" vertex="1" parent="65">
                    <mxGeometry x="595" y="110" width="120" height="60" as="geometry"/>
                </mxCell>
                <mxCell id="36" value="(웨이브 종료) 상점 호출" style="edgeStyle=elbowEdgeStyle;rounded=1;elbow=vertical;html=1;shadow=0;endArrow=none;endFill=0;" edge="1" parent="65" source="20" target="35">
                    <mxGeometry relative="1" as="geometry"/>
                </mxCell>
                <mxCell id="39" value="몬스터 스포너" style="whiteSpace=wrap;html=1;rounded=0;shadow=0;" vertex="1" parent="65">
                    <mxGeometry x="130" y="230" width="120" height="60" as="geometry"/>
                </mxCell>
                <mxCell id="40" value="(웨이브 시작) 몬스터 소환" style="edgeStyle=elbowEdgeStyle;rounded=1;elbow=vertical;html=1;shadow=0;endArrow=classic;endFill=1;" edge="1" parent="65" source="20" target="39">
                    <mxGeometry relative="1" as="geometry">
                        <Array as="points">
                            <mxPoint x="360" y="195"/>
                        </Array>
                    </mxGeometry>
                </mxCell>
                <mxCell id="44" value="몬스터" style="whiteSpace=wrap;html=1;rounded=0;shadow=0;" vertex="1" parent="65">
                    <mxGeometry x="130" y="350" width="120" height="60" as="geometry"/>
                </mxCell>
                <mxCell id="45" value="1&lt;br&gt;&lt;br&gt;*" style="edgeStyle=elbowEdgeStyle;rounded=1;elbow=vertical;html=1;shadow=0;endArrow=classic;endFill=1;horizontal=1;textDirection=ltr;align=right;" edge="1" parent="65" source="39" target="44">
                    <mxGeometry relative="1" as="geometry"/>
                </mxCell>
                <mxCell id="49" value="" style="edgeStyle=elbowEdgeStyle;rounded=1;elbow=vertical;html=1;shadow=0;endArrow=block;endFill=0;dashed=1;" edge="1" parent="65" source="47" target="44">
                    <mxGeometry relative="1" as="geometry"/>
                </mxCell>
                <mxCell id="47" value="지상 몬스터" style="whiteSpace=wrap;html=1;rounded=0;shadow=0;" vertex="1" parent="65">
                    <mxGeometry y="470" width="120" height="60" as="geometry"/>
                </mxCell>
                <mxCell id="51" value="" style="edgeStyle=elbowEdgeStyle;rounded=1;elbow=vertical;html=1;shadow=0;endArrow=block;endFill=0;dashed=1;entryX=0.5;entryY=1;entryDx=0;entryDy=0;" edge="1" parent="65" source="52" target="44">
                    <mxGeometry relative="1" as="geometry">
                        <mxPoint x="320" y="410" as="targetPoint"/>
                    </mxGeometry>
                </mxCell>
                <mxCell id="52" value="공중 몬스터" style="whiteSpace=wrap;html=1;rounded=0;shadow=0;" vertex="1" parent="65">
                    <mxGeometry x="130" y="470" width="120" height="60" as="geometry"/>
                </mxCell>
                <mxCell id="55" style="edgeStyle=elbowEdgeStyle;rounded=1;elbow=vertical;html=1;shadow=0;dashed=1;endArrow=block;endFill=0;" edge="1" parent="65" source="53" target="44">
                    <mxGeometry relative="1" as="geometry"/>
                </mxCell>
                <mxCell id="53" value="보스 몬스터" style="whiteSpace=wrap;html=1;rounded=0;shadow=0;" vertex="1" parent="65">
                    <mxGeometry x="265" y="470" width="120" height="60" as="geometry"/>
                </mxCell>
            </root>
        </mxGraphModel>
    </diagram>
</mxfile>